# xmcd
#
# Track frame offsets:
#	150
#	17250
#	31050
#	47400
#	64800
#	78600
#	92925
#	108000
#	125475
#	140025
#	155700
#	172800
#	186600
#	202950
#	220350
#	234150
#	248475
#	263550
#	281025
#	295575
#
# Disc length: 4150 seconds
#
# Revision: 0
# Processed by: cddbd v1.5.1PL2 Copyright (c) Steve Scherf et al.
# Submitted via: audiograbber 1.83.01
#
DISCID=12103414
DTITLE=Country Hit List - Chl9805
DYEAR=1900
DGENRE=Karaoke
TTITLE0=Garth Brooks (Vocal) - Two Pina Coladas
TTITLE1=Faith Hill (Vocal) - This Kiss
TTITLE2=David Kersh (Vocal) - If I Never Stop Loving You
TTITLE3=Melodie Crittenden (Vocal) - Broken Road
TTITLE4=Trace Adkins (Vocal) - Lonely Won't Leave Me Alone
TTITLE5=Matraca Berg (Vocal) - Back In The Saddle
TTITLE6=Wade Hayes (Vocal) - Day She Left Tulsa (In A Chevy)
TTITLE7=Sammy Kershaw (Vocal) - Matches
TTITLE8=Michael Peterson (Vocal) - Too Good To Be True
TTITLE9=Lila Mccann (Vocal) - Almost Over You
TTITLE10=Garth Brooks - Two Pina Coladas
TTITLE11=Faith Hill - This Kiss
TTITLE12=David Kersh - If I Never Stop Loving You
TTITLE13=Melodie Crittenden - Broken Road
TTITLE14=Trace Adkins - Lonely Won't Leave Me Alone
TTITLE15=Matraca Berg - Back In The Saddle
TTITLE16=Wade Hayes - Day She Left Tulsa (In A Chevy)
TTITLE17=Sammy Kershaw - Matches
TTITLE18=Michael Peterson - Too Good To Be True
TTITLE19=Lisa McCann - Almost Over 
EXTD=Fixed Artist in Artist colum - Title in Title colum
EXTT0=
EXTT1=
EXTT2=
EXTT3=
EXTT4=
EXTT5=
EXTT6=
EXTT7=
EXTT8=
EXTT9=
EXTT10=
EXTT11=
EXTT12=
EXTT13=
EXTT14=
EXTT15=
EXTT16=
EXTT17=
EXTT18=
EXTT19=
PLAYORDER=
